<?xml version="1.0" standalone="no"?><!DOCTYPE svg PUBLIC "-//W3C//DTD SVG 1.1//EN" "http://www.w3.org/Graphics/SVG/1.1/DTD/svg11.dtd"><svg t="1689145498728" class="icon" viewBox="0 0 2614 1024" version="1.1" xmlns="http://www.w3.org/2000/svg" p-id="4773" xmlns:xlink="http://www.w3.org/1999/xlink" width="510.546875" height="200"><path d="M1273.818235 640.206059c-1.348749 1.049027-2.697497 1.948193-4.046246 3.14708-67.587297 59.944388-54.09981 122.885994-39.563296 139.520562S1261.379775 804.753403 1273.818235 794.263135s11.839017-16.634568 11.839017-16.634568a26.525391 26.525391 0 1 1-34.917606-40.012878 36.116493 36.116493 0 0 1 54.09981 6.743743c27.724279 31.620664-1.049027 65.189521-7.493049 70.884238a64.140495 64.140495 0 0 1-89.916581-12.138738c-35.51705-40.612323-28.623445-107.899898 19.781648-163.348456h-119.589053l137.872091 383.793941 175.637055-383.344358z" fill="#EB3D72" p-id="4774"></path><path d="M1717.406703 597.0461l-3.446803 3.896385c-55.598419 71.18396-31.021221 130.678765-13.637348 144.465974s34.617884 15.885263 44.958291 3.746524 8.691936-18.58276 8.691936-18.58276a26.675252 26.675252 0 1 1-41.661349-32.969413 36.116493 36.116493 0 0 1 54.549392-3.14708c32.969413 26.075809 10.78999 64.290356 5.394995 70.884238a63.690912 63.690912 0 0 1-91.26533 4.495829c-42.260793-33.418996-47.805649-100.856432-10.190546-164.097761l-116.891555 21.430119 205.309527 352.622859 103.104347-409.420167z" fill="#32C4AA" p-id="4775"></path><path d="M875.038197 603.789843l-4.345968 2.547637c-74.930484 50.053564-70.584516 114.343919-58.295917 132.776818s27.87414 25.925948 41.81121 17.683595 13.93707-14.986097 13.93707-14.986097a26.525391 26.525391 0 1 1-29.073028-44.958291 36.116493 36.116493 0 0 1 52.751061 14.086931c23.078589 35.217328-10.040685 64.440217-17.234011 69.085907a63.990634 63.990634 0 0 1-88.11825-24.427338c-29.972194-44.958291-13.487487-110.747256 41.961072-159.152349l-118.090444-15.43568L794.263135 980.090736l226.739646-356.219523z" fill="#93E041" p-id="4776"></path><path d="M2134.319918 495.590224a21.879701 21.879701 0 0 0-2.547636 3.596663c-43.459681 65.639104-17.833455 115.692668-1.798332 126.482658s31.171082 11.239573 39.263574 0 6.294161-16.634568 6.29416-16.634568a23.22845 23.22845 0 1 1-38.514269-25.776086 31.470803 31.470803 0 0 1 47.206206-6.593883c29.972194 20.381092 13.787209 55.148837 9.591102 61.293136a55.74828 55.74828 0 0 1-79.126592 10.340407c-38.963852-26.22567-48.405093-84.371725-20.231231-142.068198l-100.107127 26.974974 203.061613 292.079028 60.993414-363.113127z" fill="#FED150" p-id="4777"></path><path d="M507.279379 497.987999l-4.345968 1.49861c-75.979511 31.320942-83.022977 89.916581-74.930484 108.049759s20.231231 28.024001 33.868579 23.078589 14.986097-10.78999 14.986097-10.78999a24.127616 24.127616 0 1 1-18.133177-44.958291 32.819552 32.819552 0 0 1 44.95829 21.879702c14.986097 35.367189-20.381092 55.598419-27.574418 58.595639a58.295917 58.295917 0 0 1-74.930484-37.465243c-18.283038-44.958291 7.642909-101.156154 65.639104-134.874871l-102.05532-35.217328 4.345968 370.606176L633.911898 541.747402z" fill="#44286E" p-id="4778"></path><path d="M1287.455583 659.388263a2369.152056 2369.152056 0 0 1-487.647592-50.203425C392.785599 524.513391 152.558466 361.764379 142.517781 354.870774a22.479145 22.479145 0 0 1 25.326504-37.015659c2.397776 1.648471 244.42324 164.847066 643.353139 248.319625 367.758818 77.178399 948.320211 101.006293 1625.69179-224.791453a22.479145 22.479145 0 1 1 19.481926 40.462462C2016.679058 593.449437 1616.849993 659.388263 1287.455583 659.388263zM2471.057515 261.35753v727.12542" fill="#612273" p-id="4779"></path><path d="M2471.057515 1011.111957a22.479145 22.479145 0 0 1-22.479145-22.479146V261.35753a22.479145 22.479145 0 1 1 44.95829 0V989.082394a22.479145 22.479145 0 0 1-22.479145 22.029563z" fill="#612273" p-id="4780"></path><path d="M2471.057515 143.416947m-143.416947 0a143.416947 143.416947 0 1 0 286.833894 0 143.416947 143.416947 0 1 0-286.833894 0Z" fill="#FED150" p-id="4781"></path><path d="M2510.021367 201.563003c8.092492-3.446802 46.906483-26.675252 29.972194-66.388409a36.865798 36.865798 0 0 0-50.503147-24.127616 28.024001 28.024001 0 0 0-16.035123 36.266354 28.024001 28.024001 0 0 0 37.015659 13.93707s-1.648471 6.444022-16.784429 12.2886-29.972194-4.495829-38.514269-25.476365-1.648471-86.469779 83.47256-122.885994c2.847358-1.198888 5.844578-2.098054 8.691936-3.147081a46.007317 46.007317 0 0 0-2.547636-4.64569 36.116493 36.116493 0 0 0-48.554954-8.691936c-63.990634 38.364408-91.864774 101.156154-70.584517 151.809162a65.489243 65.489243 0 0 0 84.371726 41.061905zM143.416947 261.35753v727.12542M143.416947 1011.111957A22.479145 22.479145 0 0 1 120.937802 989.082394V261.35753a22.479145 22.479145 0 1 1 44.95829 0V989.082394a22.479145 22.479145 0 0 1-22.479145 22.029563z" fill="#612273" p-id="4782"></path><path d="M143.416947 143.416947m-143.416947 0a143.416947 143.416947 0 1 0 286.833894 0 143.416947 143.416947 0 1 0-286.833894 0Z" fill="#FED150" p-id="4783"></path><path d="M182.53066 201.563003c8.092492-3.446802 46.906483-26.675252 29.972194-66.388409a37.16552 37.16552 0 0 0-50.653008-24.127616 28.323723 28.323723 0 0 0-15.735401 36.266354 28.173862 28.173862 0 0 0 37.16552 13.93707s-1.648471 6.444022-16.93429 12.2886-29.972194-4.495829-38.514269-25.476365-1.49861-86.469779 83.622421-122.885994c2.847358-1.198888 5.694717-2.098054 8.691936-3.147081a28.773306 28.773306 0 0 0-2.697497-4.64569 35.966633 35.966633 0 0 0-48.405093-8.691936C104.902678 47.056344 77.178399 109.84809 98.308796 160.501098a65.639104 65.639104 0 0 0 84.221864 41.061905z" fill="#612273" p-id="4784"></path></svg>